<?xml version="1.0" encoding="utf-8"?>
<!-- Generator: Adobe Illustrator 19.2.0, SVG Export Plug-In . SVG Version: 6.00 Build 0)  -->
<svg version="1.1" id="Layer_3" xmlns="http://www.w3.org/2000/svg" xmlns:xlink="http://www.w3.org/1999/xlink" x="0px" y="0px"
	 width="536.9px" height="472.6px" viewBox="0 0 536.9 472.6" style="enable-background:new 0 0 536.9 472.6;" xml:space="preserve"
	>
<style type="text/css">
	.st0{fill:#F6FAFE;}
	.st1{opacity:0.9;fill:#EBF3FD;}
	.st2{clip-path:url(#SVGID_2_);}
	.st3{fill:#75A1FC;}
	.st4{fill:#9EC3FD;}
	.st5{fill:#F5FAFE;}
	.st6{fill:#3CBFBD;}
	.st7{fill:#FFFFFF;}
	.st8{fill:#A5C4FD;}
	.st9{fill:#AC2D37;}
	.st10{fill:#81AAEA;}
	.st11{fill:#FCB7B2;}
	.st12{fill:#0152DF;}
	.st13{fill:#34ADA4;}
	.st14{fill:#010C8C;}
	.st15{opacity:0.9;fill:#7BB5FF;}
	.st16{fill:#000D8A;}
	.st17{fill:#010101;}
</style>
<path class="st0" d="M339,25.9c-141-75-309,59-309,180c0,236,163,245,269,245c80,0,267.6-62.1,233-219.6
	c-30-136.4-142.3-49.8-171-88.4C343.2,119,391.4,53.7,339,25.9z"/>
<path class="st1" d="M0,270.9c0,113,135,44,185,91c45.5,42.8,12.6,85,78.6,107c73.1,24.3,240.8-72.2,224.4-259
	c-8-91-94.5-125.2-141-145C174-8.6,0,125.4,0,270.9z"/>
<g>
	<defs>
		<path id="SVGID_1_" d="M263.6,468.9c49.4,16.5,142.1-22.4,191.9-107H185C230.5,404.7,197.6,446.9,263.6,468.9z"/>
	</defs>
	<clipPath id="SVGID_2_">
		<use xlink:href="#SVGID_1_"  style="overflow:visible;"/>
	</clipPath>
	<g class="st2">
		<rect x="396.4" y="450.7" class="st3" width="59.1" height="38.2"/>
		<rect x="312.8" y="361.9" class="st3" width="80.7" height="37.6"/>
		<rect x="164.5" y="450.7" class="st3" width="61.9" height="38.2"/>
		<rect x="312.8" y="450.7" class="st3" width="80.7" height="38.2"/>
		<rect x="396.4" y="402.3" class="st3" width="59.1" height="45.6"/>
		<rect x="396.4" y="361.9" class="st3" width="59.1" height="37.6"/>
		<rect x="229.3" y="361.9" class="st3" width="80.7" height="37.6"/>
		<rect x="312.8" y="402.3" class="st3" width="80.7" height="45.6"/>
		<rect x="164.5" y="402.3" class="st3" width="61.9" height="45.6"/>
		<rect x="229.3" y="402.3" class="st3" width="80.7" height="45.6"/>
		<rect x="164.5" y="361.9" class="st3" width="61.9" height="37.6"/>
		<rect x="229.3" y="450.7" class="st3" width="80.7" height="38.2"/>
		<g>
			<rect x="226.4" y="361.9" class="st4" width="2.8" height="37.6"/>
			<rect x="226.4" y="402.3" class="st4" width="2.8" height="45.6"/>
			<rect x="226.4" y="450.7" class="st4" width="2.8" height="38.2"/>
			<rect x="310" y="361.9" class="st4" width="2.8" height="37.6"/>
			<rect x="310" y="402.3" class="st4" width="2.8" height="45.6"/>
			<rect x="310" y="450.7" class="st4" width="2.8" height="38.2"/>
			<rect x="393.6" y="361.9" class="st4" width="2.8" height="37.6"/>
			<rect x="393.6" y="402.3" class="st4" width="2.8" height="45.6"/>
			<rect x="393.6" y="450.7" class="st4" width="2.8" height="38.2"/>
			<polygon class="st4" points="393.6,399.4 312.8,399.4 310,399.4 229.3,399.4 226.4,399.4 164.5,399.4 164.5,402.3 226.4,402.3 
				229.3,402.3 310,402.3 312.8,402.3 393.6,402.3 396.4,402.3 455.5,402.3 455.5,399.4 396.4,399.4 			"/>
			<polygon class="st4" points="393.6,447.9 312.8,447.9 310,447.9 229.3,447.9 226.4,447.9 164.5,447.9 164.5,450.7 226.4,450.7 
				229.3,450.7 310,450.7 312.8,450.7 393.6,450.7 396.4,450.7 455.5,450.7 455.5,447.9 396.4,447.9 			"/>
		</g>
	</g>
</g>
<path class="st5" d="M500.3,90c-11.2-0.1-31.5,29.3-6.5,41.6c27.1,13.3,55.3-24.6,35.6-35.5c-7.5-4.1-12.7,5.2-18.6,2.2
	C506.3,96.1,505.1,90.1,500.3,90z"/>
<g>
	<path class="st6" d="M85.8,65.6c0,3.1-2.5,5.6-5.6,5.6h-3.8v13.2L63.2,71.2H20c-3.1,0-5.6-2.5-5.6-5.6v-47c0-3.1,2.5-5.6,5.6-5.6
		h60.2c3.1,0,5.6,2.5,5.6,5.6V65.6z"/>
	<rect x="25.6" y="29.8" class="st7" width="48.9" height="3.8"/>
	<rect x="25.6" y="39.2" class="st7" width="48.9" height="3.8"/>
	<rect x="25.6" y="48.6" class="st7" width="48.9" height="3.8"/>
</g>
<g>
	<g>
		<polygon class="st8" points="183.3,270.4 183.3,294.7 183.3,319.1 183.3,361.1 189.9,361.1 194.9,289.4 360.1,289.4 365,361.1 
			371.7,361.1 371.7,319.1 371.7,294.7 371.7,270.4 		"/>
	</g>
</g>
<path class="st9" d="M1123.2,109.7"/>
<g>
	<rect x="252.4" y="153.6" class="st8" width="32" height="27.9"/>
	<polygon class="st10" points="284.5,181.5 252.4,181.5 252.4,172.1 257.9,165.8 263.6,172.1 268.4,167.1 284.5,175.7 	"/>
	<circle class="st10" cx="279" cy="163.5" r="3.5"/>
	<rect x="291.3" y="153.6" class="st8" width="47.5" height="5.8"/>
	<rect x="291.3" y="164.4" class="st8" width="66.6" height="17.1"/>
	<rect x="252.4" y="119" class="st8" width="32" height="27.9"/>
	<polygon class="st10" points="284.5,146.8 252.4,146.8 252.4,137.4 257.9,131.1 263.6,137.4 268.4,132.4 284.5,141 	"/>
	<circle class="st10" cx="279" cy="128.8" r="3.5"/>
	<rect x="291.3" y="119" class="st8" width="47.5" height="5.8"/>
	<rect x="291.3" y="129.7" class="st8" width="66.6" height="17.1"/>
	<rect x="252.4" y="188.3" class="st8" width="32" height="27.9"/>
	<polygon class="st10" points="284.5,216.1 252.4,216.1 252.4,206.7 257.9,200.4 263.6,206.7 268.4,201.7 284.5,210.3 	"/>
	<circle class="st10" cx="279" cy="198.1" r="3.5"/>
	<rect x="291.3" y="188.3" class="st8" width="47.5" height="5.8"/>
	<rect x="291.3" y="199" class="st8" width="66.6" height="17.1"/>
	<rect x="196.8" y="119" class="st8" width="47.7" height="97.1"/>
	<rect x="220.3" y="101.1" class="st8" width="24.6" height="5.3"/>
	<rect x="248.6" y="101.1" class="st8" width="24.6" height="5.3"/>
	<rect x="276.8" y="101.1" class="st8" width="24.6" height="5.3"/>
	<rect x="305" y="101.1" class="st8" width="24.6" height="5.3"/>
	<rect x="333.2" y="101.1" class="st8" width="24.6" height="5.3"/>
	<rect x="196.8" y="87.1" class="st8" width="19.5" height="19.5"/>
	<rect x="351.8" y="87.1" class="st10" width="6.4" height="6.2"/>
	<rect x="342.5" y="87.1" class="st10" width="6.4" height="6.2"/>
	<rect x="333.2" y="87.1" class="st10" width="6.4" height="6.2"/>
</g>
<g>
	<path class="st8" d="M282.5,216.1v11.5c0,2.7-2.3,5-5,5s-5-2.3-5-5v-11.5h-8.7v43.8h27.4v-43.8H282.5z"/>
	<path class="st8" d="M282.5,216.1h8.7v7.1h-8.7V216.1z M263.8,216.1h8.7v7.1h-8.7V216.1z"/>
	<path class="st8" d="M329.5,266.9H225.5l5.5-7.1H324L329.5,266.9z"/>
	<path class="st8" d="M329.5,266.9H225.5l5.5,2.7H324L329.5,266.9z"/>
	<g>
		<path class="st8" d="M389.8,76.8H165.1c-2.4,0-4.2,1.9-4.2,4.2v130.7c0,2.4,1.9,4.2,4.2,4.2h224.8c2.4,0,4.2-1.9,4.2-4.2V81.1
			C394.1,78.7,392.2,76.8,389.8,76.8z M390.6,208.2H164.3V81.2h226.3V208.2z"/>
	</g>
</g>
<g>
	<path class="st11" d="M425.7,284.7c0.8,1.5,0.5,4.1,3.3,6.4c0,0-1.2-3.5-1.8-6.9c-0.5-2.9-2.9-6.4-2.7-12.5
		c2.8-8.5,6.6-21,8.5-30.9c3.3-16.9,0.2-17.6,0.2-17.6c-5.5,3.9-7.8,19-7.8,19l-3.2,29c0,0,0,0.1,0,0.1c-1.1,3.8-1.8,9.2-1.5,11
		c0.2,1,1.7,5.3,3.7,9c1.7,3,4,5.5,4,5.5s0.1-1.1-0.9-3.1c-1.1-2.3-3.3-5.6-2.9-7.2C425.3,283.6,424.9,283.2,425.7,284.7z"/>
	<polygon class="st11" points="436.4,432.2 435.4,454.6 421.3,455.7 415,455 427.4,451 428.8,432.4 	"/>
	<path d="M434.3,457.5l-3.1,0.4l-0.5-0.9l-11.7,0.2l-5.7-1.5c0,0-0.2-1,0.3-1.3c1.6-0.9,7.6-1.4,7.6-1.4s-0.8,1.1-0.2,1.6
		c0.6,0.5,8.4,0.2,10.3-0.1c3.3-0.6,4.4-1.5,4.5-1.3C436.2,454,434.3,457.5,434.3,457.5z"/>
	<path class="st12" d="M432.1,269.5l-1.9,84.9l-5.8,93.3l12.7,1c0,0,11.9-93.9,13.3-101.2c1.4-7.3,16.5-65.5,9.4-80.3
		C452.8,252.2,432.1,269.5,432.1,269.5z"/>
	<path class="st11" d="M496.4,275.1c-1-2.4-0.8-11.9-1.1-13.1c0-0.1-0.1-0.2-0.3-0.4c-1.2-9.8-4.6-32.7-10.2-39.4
		c-1.8-2.1-8.6-1.5-4.7,12c4.2,14.5,7.3,22.9,9.5,27.8c0.8,3.2,2.2,8.5,2.6,11.2c0.7,4-0.2,10,0,11.6c0.4,2.7,1.4,4.8,1.4,4.8
		s0.2-4.3,0.1-5.4c-0.1-1.1,1.2-0.6,1.2-0.6s0.4,5.9-0.1,7.4c-0.5,1.6-1.6,2.8-1.6,2.8l-0.7,2.6l3.1-3.4l1.7-3.3l0.5-6
		C497.7,283.9,497.4,277.4,496.4,275.1z"/>
	<path class="st13" d="M440,202.5l-4.6,47.8v2.8l-13.7-0.8c0,0,4-36.9,4.6-38.7c0.6-1.8,2-17.3,1.8-20c-0.2-2.8,0.4-16.7,9.5-15.3
		C446.7,179.7,440,202.5,440,202.5z"/>
	<path class="st13" d="M475.5,202.5l4.6,47.8v2.8l13.7-0.8c-6.2-28-7.6-33.5-7.7-38.7c-0.1-1.9-0.4-17.3-0.2-20
		c0.2-2.8,0.4-10.3-7.9-15.3C470,173.6,475.5,202.5,475.5,202.5z"/>
	<path class="st11" d="M458.8,429.6l0.2,28.8l11.9-4.2c0,0,5-3.6,0.7-3.2c-6.4,0.7-5.1-2-5.3-7.1c-0.2-5.2,0.8-15.1,0.8-15.1
		L458.8,429.6z"/>
	<path d="M472.5,451c0,0-1.4,1.3-2.8,2.2c-1.4,0.9-5.4,2.9-6.9,3.2c-2,0.4-3.9,0.2-3.9,0.2s-0.9,3,1.1,2.8c2-0.2,11.9-4.6,13.3-5.6
		C474.7,452.8,474.9,451.2,472.5,451z"/>
	<path class="st14" d="M461.4,271l-1.5,87.8l-1.4,90.5l10.1-0.5c0,0,10.1-101.1,11-108.4c0.9-7.3,13-56.2,4.9-70.5
		C476.3,255.7,461.4,271,461.4,271z"/>
	<path class="st6" d="M459.4,174.6c0,0-15.6,1.1-19.3,2.6c-3.7,1.6-2.9,19.8-0.5,33.3c2.4,13.5,1.3,28.6-2.1,37
		c-3.4,8.5-6.1,24.6-6.1,24.6l54.8-0.8c0,0-12.4-33.6-12.4-46.6c0-13,3.4-42.6,3.2-45.5C476.6,176.5,462.9,174.6,459.4,174.6z"/>
	<path d="M484.6,167.1c0-8.2-5.4-15.1-12.9-17.6v-10.1c0-7.6-6.1-13.7-13.7-13.7h-3.4c-7.6,0-13.7,6.1-13.7,13.7v5.1
		c0,0.4,0,0.9,0.1,1.3c-5.2,3.3-8.6,9.1-8.6,15.6c0,3.5,1,6.7,2.6,9.4c-1.9,2.9-3,6.4-3,10.1c0,7.8,4.8,14.4,11.7,17.2
		c3.2,5.8,9.5,9.7,16.7,9.7c10.5,0,19.1-8.4,19.1-18.7c0-2.7-0.6-5.3-1.7-7.7C481.9,178,484.6,172.8,484.6,167.1z"/>
</g>
<g>
	<path class="st15" d="M521,52.1h-54.4c-5.7,0-10.3,4.6-10.3,10.3v25.6v2.4v18.3c0,1.4,1.7,2.2,2.7,1.2l7.7-9.2H521
		c5.7,0,10.3-4.6,10.3-10.3v-28C531.3,56.7,526.7,52.1,521,52.1z"/>
	<circle id="P01" class="st7" cx="479.1" cy="77.5" r="3.7"/>
	<circle id="P02" class="st7" cx="492.9" cy="77.5" r="3.7"/>
	<circle id="P03" class="st7" cx="506.7" cy="77.5" r="3.7"/>
</g>
<g>
	<path d="M60,437c0.5,0.7,0.1,2.5,0.1,2.5s-9,1.1-11.9,0.4c-0.7-0.2-2-0.9-3.2-1.6c-0.2-0.1-0.6-0.9-0.8-1c-0.4-0.2-0.5,0.2-0.9-0.1
		c-0.8-0.5-1.4-1-1.4-1c-0.8-4.5,0.3-6.3,0.3-6.3s7.7-2.8,9.1-0.9C54.8,433.5,58.9,435.5,60,437z"/>
	<path d="M107.3,431.1l1.3,7.3h3.5c0,0,0.4-1,1-1c0.5,0,1.2,1,1.8,1c1.5,0,3.1,0,3.8,0c1.3,0,14.3,0,14.3,0s0.3-1.5-0.1-2.1
		c-0.2-0.3-1.4-0.7-2.2-1c-3.7-1.1-14.2-4.5-16-8.1C112.6,422.8,107.3,431.1,107.3,431.1z"/>
	<path class="st16" d="M113.5,238.4c0,0-17.1-7.3-26.3,5.2c-6.8,9.2-6.4,36.3-5.8,48.4c1.1,21.4,8.1,39.3,11.5,46.9l-0.1,0
		c0,0-3.5,14.2-3,34.6c0.3,14.2,10.5,45.4,17.4,58.1c3,5.5,7-0.4,7-0.4l0.3-99.3L113.5,238.4z"/>
	<path class="st12" d="M106.3,238.4l-3.2,32.3l-8.8,35.1l-9.3,32.8l-33.3,91l-9.7,0.8c0,0,1.2-68.3,13.1-88.2
		c6.3-10.5,6.3-33.9,9.2-59.1c0.5-4.5-2-14.8-1.6-18.9c1.6-16.3,10-28.5,10-28.5L106.3,238.4z"/>
	<path class="st6" d="M137,201.3c1.2-1.9,2.4-3.8,3.3-5.9c1.3-3.3,2-7,3.1-10.4c1.2-3.7,2.8-7.2,4.9-10.3c0-0.2-0.1-0.4-0.1-0.6
		c-0.3-1.5-0.6-2.4-1.2-3.1c-0.9-0.2-1.8-0.4-2.7-0.7c-1.5-0.3-2.7-0.9-3.7-1.7c-0.8,0-2.6-0.2-3.7-1.7c-1.3-1.9-9.9-8.3-22.2-24.2
		c-0.4-0.5-0.8-0.9-1.3-1.2c-0.5-1.1-0.8-1.7-0.8-1.7s-26.2,0-48.9,0.5c-0.7,0-1.3,0.1-1.9,0.1c-0.4,0-0.9-0.1-1.4,0
		c-18.4,2-26.7,14.3-26.7,14.3l-21.4,58.1l8.1,14l18.3-3.2l-1.8-2.8l3.2-1.3l13.6-39.2L71,238.9l42.8,0.9
		c4.6-17.5,6.7-32.7,7.3-45.7c4.6,3.7,8.2,5.9,11,7.3C133.7,200.9,135.4,200.8,137,201.3z"/>
	<polygon class="st11" points="58.4,270.3 50.9,266.1 50,265.2 51.1,263.5 52.7,263.7 52.4,258.8 60.3,257.4 64.3,255.5 60.6,268.8 
			"/>
	<path class="st11" d="M37.1,222l27.1,33c0,0-1,4.8-3.1,2.3c-0.3-0.3,1-1.3-0.6-2.2c-6.7-3.6-22.3-9.2-28.1-14.8
		c-7.6-7.4-13-16-13-16L37.1,222z"/>
	<polygon class="st13" points="89.9,147.5 88.8,155.1 75.8,142.8 75.8,140.9 	"/>
	<polygon class="st13" points="94,142.6 96.2,152.5 90.5,147.5 	"/>
	<path class="st13" d="M12.1,212.8c0,0,21.3,5.7,27.8,6.7l-3.2,1.3l1.8,2.8l-6.3,1.1l-12,2.1l-2.8-4.8L12.1,212.8z"/>
	<path class="st11" d="M74.2,131.7c0.5,2.4,1.4,6,2.3,8.1c1.5,3.3,14.3,7.6,16.3,8.1c2,0.5-0.5-10-0.5-12.3c0-1.8-1.2-1.2,0.2-3.9
		H74.2z"/>
	<path class="st11" d="M96.1,126.4l-0.8-5c0.5-0.2,0.9-0.7,0.8-1.3l-1-6.5c-0.1-0.6-0.6-1-1.1-1l-1.7-10.7c-0.3-2-2.2-3.4-4.3-3.1
		l-16.6,2.6c-2,0.3-3.4,2.2-3.1,4.3l1.7,10.6l-1.3,0.2c-0.7,0.1-1.1,0.8-1,1.4l1.1,6.5c0.1,0.7,0.7,1.1,1.4,1l1.3-0.2l0.8,4.9
		c0.3,2,2.2,3.4,4.3,3.1l16.6-2.7C95,130.4,96.4,128.5,96.1,126.4z"/>
	<g>
		<path class="st17" d="M69,105.6c0.3-2.7,7.2-1.8,10.9-1.4c3.6,0.4,6.3-0.5,10.5-3.5c0.8,0.4,1.6,0.8,1.7,1
			c0.3,0.6,0.8,5.3,0.8,5.3s1.8-2.7,2-4.3c0.1-0.7-0.8-2.7-2.3-3.8c0.1-0.1,0.2-0.3,0.3-0.4c0-0.1-2.3-0.6-3-4.1
			c-0.9-4.7-5-4.9-7.4-3.9c-1.5,0.6-5.3,5-7.5,6.9c-2.2,1.9-2.4,0.9-7.4,2.1c-3.3,0.8-3.3,2.8-3.3,5.6c0,2.8,4,11.8,4,11.8
			c0.7,0.4,1.5,0.5,1.7-0.1C70.3,116.3,68.7,108.4,69,105.6z"/>
		<path class="st17" d="M99.3,127.3c-0.3-1.8-3.2-6.8-4.4-7.7c0,0,0.6,4,0.6,4s-2.6-3.6-7.3-2.8c-7.5,1.2-8.5,5.8-11.8,6.3
			c-2.5,0.3-5.1-3.5-6.2-8.1c0,0,1.5,9.6,2.1,12.9c0.5,2.9,2.7,9.1,19.1,6.5C101.1,136.7,99.6,129.6,99.3,127.3z"/>
	</g>
	<g id="BrazoAnimación">
		<path class="st6" d="M142.2,167l-1.4,1.6c0,0-1.8,0.2-3.1-0.8c-3.3,1.2-5.1,8.5-6.5,11.4c-0.3,0.7-0.7,1.4-1,2.1
			c0,0.3,0.1,0.7,0.1,1c0,4.7,0,9.5-0.4,14.2c-0.1,1.2-0.3,2.3-0.4,3.5c9.4,5.5,11.6,2.2,11.6,2.2l7.8-5.2l5.8-27.1L142.2,167z"/>
		<path class="st13" d="M129.9,178.2l3.8-7.7l3.7-2.9c1.4,1.2,3.5,1,3.5,1l-3.4,4.1l-4,7.2l-2.7,16.1L129.9,178.2z"/>
		<path class="st11" d="M204.1,133.8c-0.6-0.1-1.3,0.2-1.8,0.4l2.6-2.1c0,0,0.4-0.2,0-0.9c-0.5-0.7-1.9-0.3-1.9-0.3l-10.4,4.9l9.2-8
			c0,0,0.6-1.3-0.9-1.3c-0.5,0-1.9,1.1-1.9,1.1l-2.5,1.8l-6.1,3.3l-4.7,3.1c0,0-2.9,1.4,0.6-3.5c3.5-4.8,0.8-5.5,0.8-5.5l-1.5,1.7
			c0,0-5.1,7.3-6.4,9.4c-1.1,1.8,0.5,8.1,1,9.9c-4.2,23.1-27.6,23.5-27.6,23.5s-15.6,21.7-10.3,25.3c5.4,3.5,11.3,1.4,25.2-7.3
			c13.9-8.7,18.7-30.4,17.3-38.1c-0.1-0.7-0.3-1.5-0.4-2.2l18-9.1c0,0-0.2-0.2-0.7-0.9c-0.5-0.6-1.9-0.3-1.9-0.3l-5.6,1.9l10.9-5.7
			C205.2,135,205.2,133.9,204.1,133.8z"/>
	</g>
</g>
</svg>
